<?xml version="1.0" encoding="UTF-8"?>
<svg id="Layer_2" data-name="Layer 2" xmlns="http://www.w3.org/2000/svg" viewBox="0 0 1371.36 1383.31">
  <defs>
    <style>
      .cls-1 {
        fill: #1a1a1a;
      }
    </style>
  </defs>
  <g id="Layer_1-2" data-name="Layer 1">
    <g>
      <polygon class="cls-1" points="669.09 806.25 667.38 806.25 524.57 386.36 335.57 386.36 335.57 996.95 461.28 996.95 461.28 568.51 462.99 568.51 612.65 996.95 716.12 996.95 865.78 564.24 867.49 564.24 867.49 996.95 993.2 996.95 993.2 386.36 804.21 386.36 669.09 806.25"/>
      <path class="cls-1" d="M1368.11,701.54c-8.1-34.99-37.16-65.62-51.11-98.8-14.44-34.34-23.8-70.82-27.68-107.87-4.02-38.37,11.8-82.27,6.33-118.2-4.93-32.36-38.76-68.6-60.48-92.31-14.55-15.88-31.96-28.94-44.08-46.99-18.24-27.17-15.56-63.52-31.46-89.48-18.42-30.06-64.78-56.99-110.64-77.99-79.69-36.49-165.34-58.07-252.65-65.73-112.29-9.85-220.4-1.72-335.14,18.59-67.17,11.89-137.34,.11-202.78,20.68-62.49,19.64-118.02,62.07-151.65,118.48-34.36,57.65-77.81,105.85-94.62,173.44C-4.36,401.72,6.15,476.36,1.34,544.42c-3.28,46.43,.06,91.15,3.86,137.32,10.23,124.28-28.5,249,22.53,368.58,46.46,108.88,143.78,148.54,238.93,205,70.91,42.07,134.79,79.97,215.61,101.01,13.93,3.63,27.97,6.87,42.08,9.7,54.05,10.87,122.93,24.05,177.91,13.26,41.41-8.13,68.43-43.8,108.54-58.56,64.18-23.62,130.94-40.25,198.7-49.51,65.55-8.96,111.36-50.49,160.21-94.8,53.52-48.55,89.57-98.51,112.79-167.12,16.01-47.3,26.58-96.36,45.45-142.65,21.38-52.47,53.8-106.23,40.16-165.11Zm-129.81,139.19c-16.2,39.75-25.28,81.89-39.03,122.5-19.94,58.91-50.9,101.83-96.86,143.52-41.95,38.05-81.29,73.72-137.58,81.41-58.19,7.96-115.52,22.23-170.64,42.52-34.44,12.68-57.65,43.31-93.21,50.29-47.22,9.27-106.37-2.05-152.79-11.39-12.12-2.44-24.17-5.22-36.14-8.33-69.41-18.07-124.26-50.61-185.16-86.75-81.71-48.48-165.29-82.54-205.19-176.05-43.82-102.69-10.56-209.79-19.35-316.52-3.27-39.66-6.13-78.06-3.31-117.93,4.13-58.45-4.89-122.55,9.28-179.53,14.43-58.05,51.75-99.44,81.26-148.95,28.87-48.45,76.57-84.89,130.23-101.75,56.2-17.66,116.46-7.55,174.14-17.76,98.54-17.44,191.38-24.42,287.81-15.96,74.98,6.58,148.54,25.11,216.97,56.45,39.39,18.04,79.2,41.16,95.02,66.98,13.66,22.29,11.35,53.5,27.02,76.84,10.41,15.5,25.36,26.72,37.86,40.36,18.66,20.36,47.71,51.48,51.94,79.27,4.7,30.86-8.88,68.56-5.43,101.51,3.33,31.82,11.37,63.14,23.77,92.63,11.98,28.49,36.94,54.8,43.89,84.84,11.71,50.57-16.13,96.74-34.49,141.8Z"/>
    </g>
  </g>
</svg>